{
  "accessors": [
    {
      "bufferView": 0,
      "componentType": 5125,
      "count": 12012,
      "type": "SCALAR"
    },
    {
      "bufferView": 1,
      "componentType": 5126,
      "count": 3948,
      "max": [
        1.0,
        0.332540065050125,
        0.99802702665329
      ],
      "min": [
        -1.0,
        -0.332540065050125,
        -0.99802702665329
      ],
      "type": "VEC3"
    },
    {
      "bufferView": 2,
      "componentType": 5126,
      "count": 3948,
      "type": "VEC3"
    },
    {
      "bufferView": 3,
      "componentType": 5126,
      "count": 3948,
      "type": "VEC2"
    }
  ],
  "asset": {
    "generator": "Substance Painter 2019.3.3",
    "version": "2.0"
  },
  "bufferViews": [
    {
      "buffer": 0,
      "byteLength": 48048,
      "target": 34963
    },
    {
      "buffer": 0,
      "byteLength": 47376,
      "byteOffset": 48048,
      "target": 34962
    },
    {
      "buffer": 0,
      "byteLength": 47376,
      "byteOffset": 95424,
      "target": 34962
    },
    {
      "buffer": 0,
      "byteLength": 31584,
      "byteOffset": 142800,
      "target": 34962
    }
  ],
  "buffers": [
    {
      "byteLength": 174384,
      "uri": "PBR - Metallic Roughness.bin"
    }
  ],
  "images": [
    {
      "uri": "standardSurface2SG_baseColor.png"
    },
    {
      "uri": "standardSurface2SG_occlusionRoughnessMetallic.png"
    },
    {
      "uri": "standardSurface2SG_normal.png"
    }
  ],
  "materials": [
    {
      "alphaMode": "OPAQUE",
      "name": "standardSurface2SG",
      "normalTexture": {
        "index": 2
      },
      "occlusionTexture": {
        "index": 1
      },
      "pbrMetallicRoughness": {
        "baseColorTexture": {
          "index": 0
        },
        "metallicRoughnessTexture": {
          "index": 1
        }
      }
    }
  ],
  "meshes": [
    {
      "name": "stadium2",
      "primitives": [
        {
          "attributes": {
            "NORMAL": 2,
            "POSITION": 1,
            "TEXCOORD_0": 3
          },
          "indices": 0,
          "material": 0,
          "mode": 4
        }
      ]
    }
  ],
  "nodes": [
    {
      "children": [
        1
      ],
      "name": "stadium.obj",
      "scale": [
        507.760101318359,
        507.760101318359,
        507.760101318359
      ],
      "translation": [
        -0.000152587890625,
        0.0,
        -9.1552734375e-05
      ]
    },
    {
      "children": [
        2
      ],
      "name": "g stadium2"
    },
    {
      "mesh": 0,
      "name": "stadium2"
    }
  ],
  "samplers": [
    {
      "magFilter": 9729,
      "minFilter": 9985,
      "wrapS": 10497,
      "wrapT": 10497
    }
  ],
  "scene": 0,
  "scenes": [
    {
      "name": "Scene",
      "nodes": [
        0
      ]
    }
  ],
  "textures": [
    {
      "sampler": 0,
      "source": 0
    },
    {
      "sampler": 0,
      "source": 1
    },
    {
      "sampler": 0,
      "source": 2
    }
  ]
}