{
  "accessors": [
    {
      "bufferView": 0,
      "componentType": 5125,
      "count": 2430,
      "type": "SCALAR"
    },
    {
      "bufferView": 1,
      "componentType": 5126,
      "count": 421,
      "max": [
        1.00000011920929,
        0.0,
        0.994522392749786
      ],
      "min": [
        -1.0,
        0.0,
        -0.994522392749786
      ],
      "type": "VEC3"
    },
    {
      "bufferView": 2,
      "componentType": 5126,
      "count": 421,
      "type": "VEC3"
    },
    {
      "bufferView": 3,
      "componentType": 5126,
      "count": 421,
      "type": "VEC2"
    }
  ],
  "asset": {
    "generator": "Substance Painter 2019.3.3",
    "version": "2.0"
  },
  "bufferViews": [
    {
      "buffer": 0,
      "byteLength": 9720,
      "target": 34963
    },
    {
      "buffer": 0,
      "byteLength": 5052,
      "byteOffset": 9720,
      "target": 34962
    },
    {
      "buffer": 0,
      "byteLength": 5052,
      "byteOffset": 14772,
      "target": 34962
    },
    {
      "buffer": 0,
      "byteLength": 3368,
      "byteOffset": 19824,
      "target": 34962
    }
  ],
  "buffers": [
    {
      "byteLength": 23192,
      "uri": "PBR - Metallic Roughness.bin"
    }
  ],
  "images": [
    {
      "uri": "standardSurface2SG_baseColor.png"
    },
    {
      "uri": "standardSurface2SG_occlusionRoughnessMetallic.png"
    },
    {
      "uri": "standardSurface2SG_normal.png"
    }
  ],
  "materials": [
    {
      "alphaMode": "OPAQUE",
      "name": "standardSurface2SG",
      "normalTexture": {
        "index": 2
      },
      "occlusionTexture": {
        "index": 1
      },
      "pbrMetallicRoughness": {
        "baseColorTexture": {
          "index": 0
        },
        "metallicRoughnessTexture": {
          "index": 1
        }
      }
    }
  ],
  "meshes": [
    {
      "name": "floor",
      "primitives": [
        {
          "attributes": {
            "NORMAL": 2,
            "POSITION": 1,
            "TEXCOORD_0": 3
          },
          "indices": 0,
          "material": 0,
          "mode": 4
        }
      ]
    }
  ],
  "nodes": [
    {
      "children": [
        1
      ],
      "name": "floor.obj",
      "scale": [
        346.916015625,
        346.916015625,
        346.916015625
      ],
      "translation": [
        -9.1552734375e-05,
        10.1597061157227,
        -0.000152587890625
      ]
    },
    {
      "children": [
        2
      ],
      "name": "g floor"
    },
    {
      "mesh": 0,
      "name": "floor"
    }
  ],
  "samplers": [
    {
      "magFilter": 9729,
      "minFilter": 9985,
      "wrapS": 10497,
      "wrapT": 10497
    }
  ],
  "scene": 0,
  "scenes": [
    {
      "name": "Scene",
      "nodes": [
        0
      ]
    }
  ],
  "textures": [
    {
      "sampler": 0,
      "source": 0
    },
    {
      "sampler": 0,
      "source": 1
    },
    {
      "sampler": 0,
      "source": 2
    }
  ]
}