{"asset":{"version":"2.0","generator":"babylon.js glTF exporter for Maya 2018 v20200225.2"},"scene":0,"scenes":[{"nodes":[0,1],"extensions":{}}],"nodes":[{"mesh":0,"name":"radiusBox"},{"name":"Default light"}],"meshes":[{"primitives":[{"attributes":{"POSITION":1,"TANGENT":2,"NORMAL":3,"TEXCOORD_0":4},"indices":0,"material":0}],"name":"radiusBox"}],"accessors":[{"bufferView":0,"componentType":5123,"count":36,"type":"SCALAR","name":"accessorIndices"},{"bufferView":1,"componentType":5126,"count":24,"max":[0.01785275,0.01785275,0.01785275],"min":[-0.01785275,-0.01785275,-0.01785275],"type":"VEC3","name":"accessorPositions"},{"bufferView":2,"componentType":5126,"count":24,"type":"VEC4","name":"accessorTangents"},{"bufferView":1,"byteOffset":288,"componentType":5126,"count":24,"type":"VEC3","name":"accessorNormals"},{"bufferView":3,"componentType":5126,"count":24,"type":"VEC2","name":"accessorUVs"}],"bufferViews":[{"buffer":0,"byteLength":72,"name":"bufferViewScalar"},{"buffer":0,"byteOffset":72,"byteLength":576,"byteStride":12,"name":"bufferViewFloatVec3"},{"buffer":0,"byteOffset":648,"byteLength":384,"byteStride":16,"name":"bufferViewFloatVec4"},{"buffer":0,"byteOffset":1032,"byteLength":192,"byteStride":8,"name":"bufferViewFloatVec2"}],"buffers":[{"uri":"radius.bin","byteLength":1224}],"materials":[{"pbrMetallicRoughness":{"baseColorTexture":{"index":1},"metallicRoughnessTexture":{"index":2}},"normalTexture":{"index":0},"name":"aiStandardSurface1"}],"textures":[{"sampler":0,"source":0,"name":"cube_initialShadingGroup_Normal.jpg"},{"sampler":0,"source":1,"name":"cube_initialShadingGroup_BaseColor.jpg"},{"sampler":0,"source":2,"name":"file3file2.jpg"}],"images":[{"uri":"cube_initialShadingGroup_Normal.jpg"},{"uri":"cube_initialShadingGroup_BaseColor.jpg"},{"uri":"file3file2.jpg"}],"samplers":[{"magFilter":9729,"minFilter":9987}]}