# This file uses centimeters as units for non-parametric coordinates.

mtllib gladiator.mtl
g default
v -3.362429 1.180454 5.152099
v 3.405198 1.041104 5.152099
v -3.146069 11.688067 5.152099
v 3.621557 11.548716 5.152099
v -3.146069 11.688067 -0.102821
v 3.621557 11.548716 -0.102821
v -3.362429 1.180454 -0.102821
v 3.405198 1.041104 -0.102821
vt 0.950246 0.733673
vt 0.951813 0.840336
vt 0.843583 0.735240
vt 0.845151 0.841903
vt 0.736921 0.736808
vt 0.738488 0.843470
vt 0.630258 0.738375
vt 0.631825 0.845038
vt 0.523595 0.739942
vt 0.525163 0.846605
vt 0.953381 0.946998
vt 0.846718 0.948566
vt 0.948679 0.627010
vt 0.842016 0.628578
vn 0.000000 0.000000 1.000000
vn 0.000000 0.000000 1.000000
vn 0.000000 0.000000 1.000000
vn 0.000000 0.000000 1.000000
vn 0.020586 0.999788 0.000000
vn 0.020586 0.999788 0.000000
vn 0.020586 0.999788 0.000000
vn 0.020586 0.999788 0.000000
vn 0.000000 0.000000 -1.000000
vn 0.000000 0.000000 -1.000000
vn 0.000000 0.000000 -1.000000
vn 0.000000 0.000000 -1.000000
vn -0.020586 -0.999788 0.000000
vn -0.020586 -0.999788 0.000000
vn -0.020586 -0.999788 0.000000
vn -0.020586 -0.999788 0.000000
vn 0.999788 -0.020586 0.000000
vn 0.999788 -0.020586 0.000000
vn 0.999788 -0.020586 0.000000
vn 0.999788 -0.020586 0.000000
vn -0.999788 0.020586 0.000000
vn -0.999788 0.020586 0.000000
vn -0.999788 0.020586 0.000000
vn -0.999788 0.020586 0.000000
s off
g rightarm gladiator
usemtl surfaceShader2SG
f 1/1/1 2/2/2 4/4/3 3/3/4
f 3/3/5 4/4/6 6/6/7 5/5/8
f 5/5/9 6/6/10 8/8/11 7/7/12
f 7/7/13 8/8/14 2/10/15 1/9/16
f 2/2/17 8/11/18 6/12/19 4/4/20
f 7/13/21 1/1/22 3/3/23 5/14/24
g default
v -5.254920 22.340836 5.254920
v 5.254920 22.340836 5.254920
v -5.254920 32.850676 5.254920
v 5.254920 32.850676 5.254920
v -5.254920 32.850676 -5.254920
v 5.254920 32.850676 -5.254920
v -5.254920 22.340836 -5.254920
v 5.254920 22.340836 -5.254920
vt 0.711723 0.596795
vt 0.605074 0.599090
vt 0.709428 0.490146
vt 0.602779 0.492441
vt 0.707134 0.383496
vt 0.600484 0.385791
vt 0.704839 0.276847
vt 0.598189 0.279141
vt 0.702544 0.170197
vt 0.595894 0.172492
vt 0.498424 0.601385
vt 0.496129 0.494736
vt 0.818373 0.594500
vt 0.816078 0.487851
vn 0.000000 0.000000 1.000000
vn 0.000000 0.000000 1.000000
vn 0.000000 0.000000 1.000000
vn 0.000000 0.000000 1.000000
vn 0.000000 1.000000 0.000000
vn 0.000000 1.000000 0.000000
vn 0.000000 1.000000 0.000000
vn 0.000000 1.000000 0.000000
vn 0.000000 0.000000 -1.000000
vn 0.000000 0.000000 -1.000000
vn 0.000000 0.000000 -1.000000
vn 0.000000 0.000000 -1.000000
vn 0.000000 -1.000000 0.000000
vn 0.000000 -1.000000 0.000000
vn 0.000000 -1.000000 0.000000
vn 0.000000 -1.000000 0.000000
vn 1.000000 0.000000 0.000000
vn 1.000000 0.000000 0.000000
vn 1.000000 0.000000 0.000000
vn 1.000000 0.000000 0.000000
vn -1.000000 0.000000 0.000000
vn -1.000000 0.000000 0.000000
vn -1.000000 0.000000 0.000000
vn -1.000000 0.000000 0.000000
s off
g gladiator head
usemtl surfaceShader1SG
f 9/15/25 10/16/26 12/18/27 11/17/28
f 11/17/29 12/18/30 14/20/31 13/19/32
f 13/19/33 14/20/34 16/22/35 15/21/36
f 15/21/37 16/22/38 10/24/39 9/23/40
f 10/16/41 16/25/42 14/26/43 12/18/44
f 15/27/45 9/15/46 11/17/47 13/28/48
g default
v -3.507128 11.662632 5.254920
v 3.507128 11.662632 5.254920
v -3.507128 22.172472 5.254920
v 3.507128 22.172472 5.254920
v -3.507128 22.172472 -5.254920
v 3.507128 22.172472 -5.254920
v -3.507128 11.662632 -5.254920
v 3.507128 11.662632 -5.254920
vt 0.743793 0.024478
vt 0.850468 0.024478
vt 0.743793 0.131152
vt 0.850468 0.131152
vt 0.743793 0.237826
vt 0.850468 0.237826
vt 0.743793 0.344500
vt 0.850468 0.344500
vt 0.743793 0.451175
vt 0.850468 0.451175
vt 0.957142 0.024478
vt 0.957142 0.131152
vt 0.637119 0.024478
vt 0.637119 0.131152
vn 0.000000 0.000000 1.000000
vn 0.000000 0.000000 1.000000
vn 0.000000 0.000000 1.000000
vn 0.000000 0.000000 1.000000
vn 0.000000 1.000000 0.000000
vn 0.000000 1.000000 0.000000
vn 0.000000 1.000000 0.000000
vn 0.000000 1.000000 0.000000
vn 0.000000 0.000000 -1.000000
vn 0.000000 0.000000 -1.000000
vn 0.000000 0.000000 -1.000000
vn 0.000000 0.000000 -1.000000
vn 0.000000 -1.000000 0.000000
vn 0.000000 -1.000000 0.000000
vn 0.000000 -1.000000 0.000000
vn 0.000000 -1.000000 0.000000
vn 1.000000 0.000000 0.000000
vn 1.000000 0.000000 0.000000
vn 1.000000 0.000000 0.000000
vn 1.000000 0.000000 0.000000
vn -1.000000 0.000000 0.000000
vn -1.000000 0.000000 0.000000
vn -1.000000 0.000000 0.000000
vn -1.000000 0.000000 0.000000
s off
g gladiator chest
usemtl surfaceShader4SG
f 17/29/49 18/30/50 20/32/51 19/31/52
f 19/31/53 20/32/54 22/34/55 21/33/56
f 21/33/57 22/34/58 24/36/59 23/35/60
f 23/35/61 24/36/62 18/38/63 17/37/64
f 18/30/65 24/39/66 22/40/67 20/32/68
f 23/41/69 17/29/70 19/31/71 21/42/72
g default
v -0.956604 10.835051 -5.613860
v 4.633558 12.025666 -5.613860
v -3.145926 21.114332 -5.613860
v 2.444237 22.304946 -5.613860
v -3.145926 21.114332 -10.868780
v 2.444237 22.304946 -10.868780
v -0.956604 10.835051 -10.868780
v 4.633558 12.025666 -10.868780
vt 0.369267 0.622158
vt 0.262594 0.622758
vt 0.368667 0.515485
vt 0.261994 0.516086
vt 0.368067 0.408813
vt 0.261394 0.409413
vt 0.367467 0.302140
vt 0.260794 0.302741
vt 0.366866 0.195468
vt 0.260194 0.196068
vt 0.155922 0.623358
vt 0.155322 0.516686
vt 0.475940 0.621558
vt 0.475339 0.514885
vn 0.000000 0.000000 1.000000
vn 0.000000 0.000000 1.000000
vn 0.000000 0.000000 1.000000
vn 0.000000 0.000000 1.000000
vn -0.208312 0.978063 0.000000
vn -0.208312 0.978063 0.000000
vn -0.208312 0.978063 0.000000
vn -0.208312 0.978063 0.000000
vn 0.000000 0.000000 -1.000000
vn 0.000000 0.000000 -1.000000
vn 0.000000 0.000000 -1.000000
vn 0.000000 0.000000 -1.000000
vn 0.208312 -0.978063 0.000000
vn 0.208312 -0.978063 0.000000
vn 0.208312 -0.978063 0.000000
vn 0.208312 -0.978063 0.000000
vn 0.978063 0.208312 0.000000
vn 0.978063 0.208312 0.000000
vn 0.978063 0.208312 0.000000
vn 0.978063 0.208312 0.000000
vn -0.978063 -0.208312 0.000000
vn -0.978063 -0.208312 0.000000
vn -0.978063 -0.208312 0.000000
vn -0.978063 -0.208312 0.000000
s off
g gladiator leftleg
usemtl surfaceShader3SG
f 25/43/73 26/44/74 28/46/75 27/45/76
f 27/45/77 28/46/78 30/48/79 29/47/80
f 29/47/81 30/48/82 32/50/83 31/49/84
f 31/49/85 32/50/86 26/52/87 25/51/88
f 26/44/89 32/53/90 30/54/91 28/46/92
f 31/55/93 25/43/94 27/45/95 29/56/96
g default
v -2.808384 1.100237 -0.143347
v 2.906912 1.153819 -0.143347
v -2.906912 11.609615 -0.143347
v 2.808384 11.663198 -0.143347
v -2.906912 11.609615 -5.398267
v 2.808384 11.663198 -5.398267
v -2.808384 1.100237 -5.398267
v 2.906912 1.153819 -5.398267
vt 0.401219 0.020982
vt 0.507894 0.020982
vt 0.401219 0.127656
vt 0.507894 0.127656
vt 0.401219 0.234330
vt 0.507894 0.234330
vt 0.401219 0.341005
vt 0.507894 0.341005
vt 0.401219 0.447679
vt 0.507894 0.447679
vt 0.614568 0.020982
vt 0.614568 0.127656
vt 0.294545 0.020982
vt 0.294545 0.127656
vn 0.000000 0.000000 1.000000
vn 0.000000 0.000000 1.000000
vn 0.000000 0.000000 1.000000
vn 0.000000 0.000000 1.000000
vn -0.009375 0.999956 0.000000
vn -0.009375 0.999956 0.000000
vn -0.009375 0.999956 0.000000
vn -0.009375 0.999956 0.000000
vn 0.000000 0.000000 -1.000000
vn 0.000000 0.000000 -1.000000
vn 0.000000 0.000000 -1.000000
vn 0.000000 0.000000 -1.000000
vn 0.009375 -0.999956 0.000000
vn 0.009375 -0.999956 0.000000
vn 0.009375 -0.999956 0.000000
vn 0.009375 -0.999956 0.000000
vn 0.999956 0.009375 0.000000
vn 0.999956 0.009375 0.000000
vn 0.999956 0.009375 0.000000
vn 0.999956 0.009375 0.000000
vn -0.999956 -0.009375 0.000000
vn -0.999956 -0.009375 0.000000
vn -0.999956 -0.009375 0.000000
vn -0.999956 -0.009375 0.000000
s off
g gladiator leftarm
usemtl surfaceShader2SG
f 33/57/97 34/58/98 36/60/99 35/59/100
f 35/59/101 36/60/102 38/62/103 37/61/104
f 37/61/105 38/62/106 40/64/107 39/63/108
f 39/63/109 40/64/110 34/66/111 33/65/112
f 34/58/113 40/67/114 38/68/115 36/60/116
f 39/69/117 33/57/118 35/59/119 37/70/120
g default
v -3.346124 12.325204 10.775349
v 2.274688 11.288889 10.775349
v -1.440532 22.660844 10.775349
v 4.180281 21.624529 10.775349
v -1.440532 22.660844 5.520429
v 4.180281 21.624529 5.520429
v -3.346124 12.325204 5.520429
v 2.274688 11.288889 5.520429
vt 0.063696 0.863932
vt 0.062205 0.757268
vt 0.170360 0.862440
vt 0.168869 0.755777
vt 0.277024 0.860949
vt 0.275533 0.754286
vt 0.383688 0.859458
vt 0.382196 0.752794
vt 0.490351 0.857967
vt 0.488860 0.751303
vt 0.060714 0.650604
vt 0.167378 0.649113
vt 0.065187 0.970595
vt 0.171851 0.969104
vn 0.000000 0.000000 1.000000
vn 0.000000 0.000000 1.000000
vn 0.000000 0.000000 1.000000
vn 0.000000 0.000000 1.000000
vn 0.181315 0.983425 0.000000
vn 0.181315 0.983425 0.000000
vn 0.181315 0.983425 0.000000
vn 0.181315 0.983425 0.000000
vn 0.000000 0.000000 -1.000000
vn 0.000000 0.000000 -1.000000
vn 0.000000 0.000000 -1.000000
vn 0.000000 0.000000 -1.000000
vn -0.181315 -0.983425 0.000000
vn -0.181315 -0.983425 0.000000
vn -0.181315 -0.983425 0.000000
vn -0.181315 -0.983425 0.000000
vn 0.983425 -0.181315 0.000000
vn 0.983425 -0.181315 0.000000
vn 0.983425 -0.181315 0.000000
vn 0.983425 -0.181315 0.000000
vn -0.983425 0.181315 0.000000
vn -0.983425 0.181315 0.000000
vn -0.983425 0.181315 0.000000
vn -0.983425 0.181315 0.000000
s off
g gladiator rightleg
usemtl surfaceShader3SG
f 41/71/121 42/72/122 44/74/123 43/73/124
f 43/73/125 44/74/126 46/76/127 45/75/128
f 45/75/129 46/76/130 48/78/131 47/77/132
f 47/77/133 48/78/134 42/80/135 41/79/136
f 42/72/137 48/81/138 46/82/139 44/74/140
f 47/83/141 41/71/142 43/73/143 45/84/144
